<svg width="50" height="50" viewBox="0 0 50 50" fill="none" xmlns="http://www.w3.org/2000/svg">
<path d="M49.9081 11.8519C49.736 11.212 49.3161 10.6664 48.7416 10.3357C48.1667 10.0033 47.4831 9.91339 46.8419 10.0855C46.2015 10.258 45.6559 10.6774 45.3251 11.2519L44.9085 11.9768C44.5126 11.7494 44.0068 11.8833 43.7753 12.2771L41.6588 15.8845L40.9338 15.4679C40.7417 15.3568 40.513 15.3267 40.299 15.3845C40.0846 15.4426 39.9023 15.5834 39.7921 15.7762C39.5663 16.1745 39.7038 16.6806 40.1005 16.9093L40.8255 17.3259L33.7428 29.5988L31.9928 34.2733L31.1595 35.831C30.6717 36.6797 30.7238 37.7346 31.293 38.5307L29.4181 40.8302L28.8933 39.5141C28.6565 38.9274 28.1084 38.5255 27.4782 38.4762C26.8475 38.4266 26.2433 38.7382 25.9183 39.2805L25.6184 39.7887L25.3352 36.4559C25.2701 35.6675 24.6594 35.0336 23.8741 34.9384C23.0885 34.8436 22.3447 35.3143 22.0937 36.0645L20.0439 42.2134C19.9007 42.6483 20.135 43.117 20.5687 43.2634C20.6501 43.3013 20.7376 43.324 20.8271 43.3297C21.1851 43.331 21.5041 43.1027 21.6189 42.7634L23.6601 36.6146L23.9519 39.997C24.0121 40.7187 24.5308 41.3188 25.2363 41.4823C25.9419 41.6459 26.6718 41.335 27.0432 40.7138L27.3517 40.2053L27.8684 41.5136C28.0877 42.0649 28.5837 42.4583 29.1708 42.5458C29.7579 42.6332 30.347 42.4018 30.7181 41.9384L32.6597 39.4807C32.8745 39.5368 33.0958 39.5649 33.318 39.5641C34.2111 39.571 35.0403 39.1007 35.4927 38.3306L36.326 36.9392L39.5008 33.0816L46.6584 20.6586L47.3834 21.0752C47.5767 21.1859 47.7175 21.3686 47.7748 21.5838C47.8326 21.7974 47.8025 22.0252 47.6918 22.2168L44.3588 27.991C44.2331 28.1805 44.1903 28.4133 44.2408 28.6354C44.2912 28.8571 44.43 29.0487 44.6253 29.1655C44.8173 29.277 45.046 29.3071 45.26 29.2493C45.4744 29.1911 45.6567 29.0504 45.7669 28.8575L49.1 23.0833C49.4324 22.5085 49.5223 21.825 49.3498 21.1839C49.1773 20.5435 48.7578 19.9979 48.1833 19.6672L47.4583 19.2506L49.5415 15.6428C49.7689 15.247 49.635 14.7417 49.2416 14.5098L49.6582 13.7848C49.9996 13.201 50.0899 12.5037 49.9081 11.8519V11.8519ZM46.7666 12.0851C46.8769 11.8922 47.06 11.751 47.2752 11.6937C47.4892 11.6408 47.7154 11.6705 47.9083 11.7771C48.1016 11.8873 48.2423 12.0704 48.3001 12.2852C48.353 12.4992 48.3233 12.7254 48.2167 12.9182L47.8001 13.6432L46.35 12.81L46.7666 12.0851ZM35.4093 35.3481L34.9927 35.1064L33.7594 34.3896L34.9426 31.2236L37.5673 32.7399L35.4093 35.3481ZM32.9095 37.7557C32.5575 37.5104 32.4493 37.0385 32.6597 36.6642L33.0763 35.9396L34.526 36.7728L34.1093 37.4893C33.9926 37.6919 33.7965 37.8359 33.5682 37.8867C33.3399 37.9372 33.1011 37.89 32.9095 37.7557ZM38.5174 31.3738L35.6343 29.7074L42.3004 18.1591L45.1835 19.8254L38.5174 31.3738ZM46.0168 18.384L43.1337 16.7177L44.8002 13.8348L47.6833 15.5012L46.0168 18.384Z" fill="#FFBB01"/>
<path d="M13.1488 37.3436L10.1994 40.285L8.4328 38.5186C8.10771 38.1955 7.58285 38.1955 7.25776 38.5186C7.0999 38.6752 7.0112 38.888 7.0112 39.1101C7.0112 39.3322 7.0999 39.5454 7.25776 39.7016L9.02439 41.4681C9.33686 41.7781 9.75919 41.9518 10.1994 41.9514C10.6421 41.9538 11.0681 41.7801 11.3826 41.4681L14.3238 38.5186C14.607 38.1878 14.5879 37.6951 14.2803 37.3876C13.9723 37.0796 13.4796 37.0605 13.1488 37.3436Z" fill="#FFBB01"/>
<path d="M3.33313 39.585C3.33313 43.4966 6.50427 46.6671 10.4159 46.6671C14.3275 46.6671 17.4987 43.4966 17.4987 39.585C17.4987 39.1248 17.1256 38.7518 16.6654 38.7518C16.2052 38.7518 15.8321 39.1248 15.8321 39.585C15.8321 42.576 13.4072 45.0007 10.4159 45.0007C7.4246 45.0007 4.99967 42.576 4.99967 39.585C4.99967 36.5939 7.4246 34.1692 10.4159 34.1692C11.5885 34.166 12.7298 34.5463 13.6656 35.2526C14.0338 35.5288 14.5562 35.454 14.8321 35.0858C15.1083 34.7176 15.0339 34.1957 14.6657 33.9194C12.5194 32.31 9.64774 32.0512 7.24843 33.2506C4.84872 34.4503 3.33313 36.9027 3.33313 39.585Z" fill="#FFBB01"/>
<path d="M29.9976 6.67383C30.4577 6.67383 30.8308 6.30117 30.8308 5.84064C30.8308 5.38051 30.4577 5.00745 29.9976 5.00745H8.3326C7.87243 5.00745 7.49933 5.38051 7.49933 5.84064V9.1734C7.49933 9.63394 7.87243 10.0066 8.3326 10.0066H29.9976C30.4577 10.0066 30.8308 9.63394 30.8308 9.1734C30.8308 8.71328 30.4577 8.34021 29.9976 8.34021H9.16586V6.67383H29.9976Z" fill="#FFBB01"/>
<path d="M10.8325 11.673C10.3723 11.673 9.99921 12.0461 9.99921 12.5062C9.99921 12.9668 10.3723 13.3394 10.8325 13.3394H27.4978C27.958 13.3394 28.3311 12.9668 28.3311 12.5062C28.3311 12.0461 27.958 11.673 27.4978 11.673H10.8325Z" fill="#FFBB01"/>
<path d="M32.4975 17.5053H14.1656C13.7054 17.5053 13.3323 17.8784 13.3323 18.3385C13.3323 18.799 13.7054 19.1717 14.1656 19.1717H32.4975C32.9577 19.1717 33.3308 18.799 33.3308 18.3385C33.3308 17.8784 32.9577 17.5053 32.4975 17.5053Z" fill="#FFBB01"/>
<path d="M24.1647 23.3377C24.1647 22.8776 23.7916 22.5045 23.3315 22.5045H6.66612C6.20595 22.5045 5.83286 22.8776 5.83286 23.3377C5.83286 23.7982 6.20595 24.1709 6.66612 24.1709H23.3315C23.7916 24.1709 24.1647 23.7982 24.1647 23.3377Z" fill="#FFBB01"/>
<path d="M32.4974 22.5045H26.6645C26.2044 22.5045 25.8313 22.8776 25.8313 23.3377C25.8313 23.7982 26.2044 24.1709 26.6645 24.1709H32.4974C32.9576 24.1709 33.3307 23.7982 33.3307 23.3377C33.3307 22.8776 32.9576 22.5045 32.4974 22.5045Z" fill="#FFBB01"/>
<path d="M14.9988 28.3368C15.459 28.3368 15.8321 27.9642 15.8321 27.5037C15.8321 27.0435 15.459 26.6705 14.9988 26.6705H6.66612C6.20595 26.6705 5.83286 27.0435 5.83286 27.5037C5.83286 27.9642 6.20595 28.3368 6.66612 28.3368H14.9988Z" fill="#FFBB01"/>
<path d="M18.3318 28.3368H24.1647C24.6248 28.3368 24.9979 27.9642 24.9979 27.5037C24.9979 27.0435 24.6248 26.6705 24.1647 26.6705H18.3318C17.8716 26.6705 17.4985 27.0435 17.4985 27.5037C17.4985 27.9642 17.8716 28.3368 18.3318 28.3368Z" fill="#FFBB01"/>
<path d="M37.497 38.3352C37.0369 38.3352 36.6638 38.7082 36.6638 39.1684V47.5003C36.6638 47.9608 36.2907 48.3335 35.8305 48.3335H2.4998C2.03963 48.3335 1.66653 47.9608 1.66653 47.5003V2.50794C1.66653 2.04781 2.03963 1.67474 2.4998 1.67474H35.8305C36.2907 1.67474 36.6638 2.04781 36.6638 2.50794V18.1555C36.6638 18.6156 37.0369 18.9887 37.497 18.9887C37.9572 18.9887 38.3303 18.6156 38.3303 18.1555V2.50794C38.3303 1.12756 37.211 0.00836182 35.8305 0.00836182H2.4998C1.1193 0.00836182 0 1.12756 0 2.50794V47.5003C0 48.8811 1.1193 49.9998 2.4998 49.9998H35.8305C37.211 49.9998 38.3303 48.8811 38.3303 47.5003V39.1684C38.3303 38.7082 37.9572 38.3352 37.497 38.3352Z" fill="#FFBB01"/>
</svg>
